<svg width="164" height="37" viewBox="0 0 164 37" fill="none" xmlns="http://www.w3.org/2000/svg">
        <path d="M80.526 11.49V24H78.474V15.432L74.658 24H73.236L69.402 15.432V24H67.35V11.49H69.564L73.956 21.3L78.33 11.49H80.526ZM84.267 12.768C83.895 12.768 83.583 12.642 83.331 12.39C83.079 12.138 82.953 11.826 82.953 11.454C82.953 11.082 83.079 10.77 83.331 10.518C83.583 10.266 83.895 10.14 84.267 10.14C84.627 10.14 84.933 10.266 85.185 10.518C85.437 10.77 85.563 11.082 85.563 11.454C85.563 11.826 85.437 12.138 85.185 12.39C84.933 12.642 84.627 12.768 84.267 12.768ZM85.275 14.082V24H83.223V14.082H85.275ZM92.9731 13.92C93.7531 13.92 94.4491 14.082 95.0611 14.406C95.6851 14.73 96.1711 15.21 96.5191 15.846C96.8671 16.482 97.0411 17.25 97.0411 18.15V24H95.0071V18.456C95.0071 17.568 94.7851 16.89 94.3411 16.422C93.8971 15.942 93.2911 15.702 92.5231 15.702C91.7551 15.702 91.1431 15.942 90.6871 16.422C90.2431 16.89 90.0211 17.568 90.0211 18.456V24H87.9691V14.082H90.0211V15.216C90.3571 14.808 90.7831 14.49 91.2991 14.262C91.8271 14.034 92.3851 13.92 92.9731 13.92ZM98.9746 19.032C98.9746 18.012 99.1786 17.118 99.5866 16.35C100.007 15.57 100.583 14.97 101.315 14.55C102.047 14.13 102.887 13.92 103.835 13.92C105.035 13.92 106.025 14.208 106.805 14.784C107.597 15.348 108.131 16.158 108.407 17.214H106.193C106.013 16.722 105.725 16.338 105.329 16.062C104.933 15.786 104.435 15.648 103.835 15.648C102.995 15.648 102.323 15.948 101.819 16.548C101.327 17.136 101.081 17.964 101.081 19.032C101.081 20.1 101.327 20.934 101.819 21.534C102.323 22.134 102.995 22.434 103.835 22.434C105.023 22.434 105.809 21.912 106.193 20.868H108.407C108.119 21.876 107.579 22.68 106.787 23.28C105.995 23.868 105.011 24.162 103.835 24.162C102.887 24.162 102.047 23.952 101.315 23.532C100.583 23.1 100.007 22.5 99.5866 21.732C99.1786 20.952 98.9746 20.052 98.9746 19.032ZM119.542 18.798C119.542 19.17 119.518 19.506 119.47 19.806H111.892C111.952 20.598 112.246 21.234 112.774 21.714C113.302 22.194 113.95 22.434 114.718 22.434C115.822 22.434 116.602 21.972 117.058 21.048H119.272C118.972 21.96 118.426 22.71 117.634 23.298C116.854 23.874 115.882 24.162 114.718 24.162C113.77 24.162 112.918 23.952 112.162 23.532C111.418 23.1 110.83 22.5 110.398 21.732C109.978 20.952 109.768 20.052 109.768 19.032C109.768 18.012 109.972 17.118 110.38 16.35C110.8 15.57 111.382 14.97 112.126 14.55C112.882 14.13 113.746 13.92 114.718 13.92C115.654 13.92 116.488 14.124 117.22 14.532C117.952 14.94 118.522 15.516 118.93 16.26C119.338 16.992 119.542 17.838 119.542 18.798ZM117.4 18.15C117.388 17.394 117.118 16.788 116.59 16.332C116.062 15.876 115.408 15.648 114.628 15.648C113.92 15.648 113.314 15.876 112.81 16.332C112.306 16.776 112.006 17.382 111.91 18.15H117.4ZM129.643 11.49V13.164H126.313V24H124.261V13.164H120.913V11.49H129.643ZM140.811 18.798C140.811 19.17 140.787 19.506 140.739 19.806H133.161C133.221 20.598 133.515 21.234 134.043 21.714C134.571 22.194 135.219 22.434 135.987 22.434C137.091 22.434 137.871 21.972 138.327 21.048H140.541C140.241 21.96 139.695 22.71 138.903 23.298C138.123 23.874 137.151 24.162 135.987 24.162C135.039 24.162 134.187 23.952 133.431 23.532C132.687 23.1 132.099 22.5 131.667 21.732C131.247 20.952 131.037 20.052 131.037 19.032C131.037 18.012 131.241 17.118 131.649 16.35C132.069 15.57 132.651 14.97 133.395 14.55C134.151 14.13 135.015 13.92 135.987 13.92C136.923 13.92 137.757 14.124 138.489 14.532C139.221 14.94 139.791 15.516 140.199 16.26C140.607 16.992 140.811 17.838 140.811 18.798ZM138.669 18.15C138.657 17.394 138.387 16.788 137.859 16.332C137.331 15.876 136.677 15.648 135.897 15.648C135.189 15.648 134.583 15.876 134.079 16.332C133.575 16.776 133.275 17.382 133.179 18.15H138.669ZM142.146 19.032C142.146 18.012 142.35 17.118 142.758 16.35C143.178 15.57 143.754 14.97 144.486 14.55C145.218 14.13 146.058 13.92 147.006 13.92C148.206 13.92 149.196 14.208 149.976 14.784C150.768 15.348 151.302 16.158 151.578 17.214H149.364C149.184 16.722 148.896 16.338 148.5 16.062C148.104 15.786 147.606 15.648 147.006 15.648C146.166 15.648 145.494 15.948 144.99 16.548C144.498 17.136 144.252 17.964 144.252 19.032C144.252 20.1 144.498 20.934 144.99 21.534C145.494 22.134 146.166 22.434 147.006 22.434C148.194 22.434 148.98 21.912 149.364 20.868H151.578C151.29 21.876 150.75 22.68 149.958 23.28C149.166 23.868 148.182 24.162 147.006 24.162C146.058 24.162 145.218 23.952 144.486 23.532C143.754 23.1 143.178 22.5 142.758 21.732C142.35 20.952 142.146 20.052 142.146 19.032ZM158.753 13.92C159.509 13.92 160.181 14.082 160.769 14.406C161.369 14.73 161.837 15.21 162.173 15.846C162.521 16.482 162.695 17.25 162.695 18.15V24H160.661V18.456C160.661 17.568 160.439 16.89 159.995 16.422C159.551 15.942 158.945 15.702 158.177 15.702C157.409 15.702 156.797 15.942 156.341 16.422C155.897 16.89 155.675 17.568 155.675 18.456V24H153.623V10.68H155.675V15.234C156.023 14.814 156.461 14.49 156.989 14.262C157.529 14.034 158.117 13.92 158.753 13.92Z" fill="url(#paint0_linear_3402_817)"/>
        <path d="M20.6626 30.8965H29.1628V31.591C29.1628 32.5943 28.2174 33.4101 27.0548 33.4101H22.7706C21.608 33.4101 20.6626 32.5943 20.6626 31.591V30.8965Z" fill="url(#paint1_linear_3402_817)"/>
        <path opacity="0.16" d="M22.5063 30.9038H27.5571V31.3154C27.5571 31.9107 26.9949 32.3958 26.305 32.3958H23.7584C23.0685 32.3958 22.5063 31.9107 22.5063 31.3154V30.9038Z" fill="white"/>
        <path d="M21.4888 34.4907H28.5794V35.0677C28.5794 35.9055 27.7915 36.5854 26.8206 36.5854H23.2476C22.2766 36.5854 21.4888 35.9055 21.4888 35.0677V34.4907Z" fill="url(#paint2_linear_3402_817)"/>
        <path opacity="0.16" d="M23.0264 34.4946H27.2381V34.8364C27.2381 35.3325 26.7697 35.7367 26.1948 35.7367H24.0697C23.4948 35.7367 23.0264 35.3325 23.0264 34.8364V34.4946Z" fill="white"/>
        <path d="M32.7998 23.3079C32.7998 24.0061 32.7998 24.7007 32.8041 25.3989V27.7692C34.8865 27.7618 36.969 27.7545 39.0514 27.7508C39.2473 27.7508 39.5497 27.7251 39.8734 27.5928C40.295 27.4201 40.5292 27.1481 40.6484 27.0011C41.4916 25.9942 41.9771 25.0608 41.9771 25.0608C42.3646 24.3185 42.8033 23.5909 43.2036 22.8522C43.655 22.0107 43.8381 21.6983 44.4854 20.5114C44.873 19.7984 45.4394 18.7768 46.1591 17.5127" fill="#5547D7" fill-opacity="0.5"/>
        <path d="M31.901 15.139C32.1011 15.2602 33.0806 14.4371 34.8351 12.6695V13.6507L32.9017 15.5579C32.8677 17.84 32.8336 20.1221 32.7995 22.4078C32.8123 22.4152 35.5846 23.4037 36.4577 23.5691C37.4755 23.7638 38.1994 23.7932 38.9064 23.5397C39.3706 23.3743 39.6687 23.1428 39.8049 23.0325C40.7376 22.2865 43.033 20.258 46.1886 17.4945C47.3171 15.6681 48.4414 13.8417 49.5699 12.0153C49.7573 11.6332 50.3748 10.2588 49.6721 8.85866C49.4848 8.49117 49.2463 8.19351 49.0163 7.96567C46.7848 6.09885 44.515 4.14016 42.2834 2.27334C41.3678 2.24394 39.592 2.39461 37.8375 3.35007C36.9091 3.85352 35.7465 4.19895 34.8351 5.4925C34.8181 5.51455 34.5498 5.66889 34.537 5.69094C32.527 8.58304 32.1394 11.9529 31.9137 14.1284C31.8541 14.7531 31.7945 15.0765 31.901 15.139Z" fill="url(#paint3_linear_3402_817)"/>
        <path d="M32.7997 22.2973L32.8934 22.3304C33.9154 22.6501 34.8438 22.911 35.7679 23.2381C36.0746 23.341 36.6239 23.4953 37.1946 23.5321C37.5054 23.5541 37.9271 23.6681 38.536 23.499C39.145 23.33 39.5794 23.0617 39.7029 22.9698C40.0053 22.7493 40.7548 22.1026 41.3765 21.5807C42.1388 20.9413 42.9394 20.2541 43.6677 19.589C44.2085 19.0966 45.0602 18.3616 46.1547 17.5127C44.8217 18.8724 43.8125 20.0263 43.1396 20.8274C41.4447 22.8486 40.8655 23.8298 39.2515 24.5978C37.9739 25.2041 36.9348 25.2593 36.5132 25.2629C36.3428 25.2629 35.3506 25.2629 34.2945 24.8367C33.8984 24.675 33.6344 24.5133 33.4427 24.3663C33.2937 24.2524 33.183 24.1421 33.1191 24.0796C33.0211 23.9804 32.9274 23.8886 32.7954 23.6754C32.7869 23.6644 32.8039 23.6313 32.7954 23.6129V22.2937L32.7997 22.2973Z" fill="url(#paint4_linear_3402_817)"/>
        <path d="M17.2001 23.2532C17.2001 23.9515 17.2001 24.646 17.1958 25.3442V27.7145C15.1134 27.7071 13.0309 27.6998 10.9484 27.6961C10.7525 27.6961 10.4502 27.6704 10.1265 27.5381C9.70493 27.3654 9.4707 27.0934 9.35146 26.9465C8.50826 25.9395 8.02278 25.0061 8.02278 25.0061C7.63524 24.2638 7.19661 23.5362 6.7963 22.7976C6.34488 21.956 6.16176 21.6437 5.51445 20.4567C5.12692 19.7438 4.56053 18.7222 3.84082 17.458" fill="#5547D7" fill-opacity="0.5"/>
        <path d="M18.0989 15.0804C17.8988 15.2017 16.9193 14.3785 15.1647 12.6109V13.5921L17.0981 15.4994C17.1322 17.7814 17.1663 20.0635 17.2004 22.3493C17.1876 22.3566 14.4152 23.3452 13.5422 23.5105C12.5244 23.7053 11.8004 23.7347 11.0935 23.4811C10.6293 23.3158 10.3312 23.0842 10.1949 22.974C9.2623 22.228 6.96691 20.1995 3.81128 17.436C2.68275 15.6096 1.55848 13.7832 0.429945 11.9568C0.242566 11.5746 -0.374933 10.2002 0.327738 8.80013C0.515117 8.43264 0.753599 8.13498 0.983564 7.90714C3.21508 6.04032 5.5275 3.96403 7.75901 2.09721C8.21043 2.08251 9.05363 1.85835 9.80741 2.03841C10.5612 2.21848 11.2724 2.81013 12.1582 3.29154C13.1036 3.80234 13.9212 4.51526 14.8496 5.8529C16.8597 8.745 17.8562 11.8943 18.0819 14.0699C18.1415 14.6946 18.2011 15.018 18.0947 15.0804H18.0989Z" fill="url(#paint5_linear_3402_817)"/>
        <path d="M17.2002 22.2387L17.1065 22.2718C16.0845 22.5915 15.1561 22.8524 14.232 23.1795C13.9253 23.2824 13.376 23.4367 12.8053 23.4735C12.4945 23.4955 12.0729 23.6095 11.4639 23.4404C10.8549 23.2714 10.4205 23.0031 10.297 22.9112C9.99465 22.6908 9.24513 22.044 8.62338 21.5222C7.86108 20.8827 7.06047 20.1955 6.33224 19.5304C5.7914 19.038 4.93968 18.303 3.84521 17.4541C5.17816 18.8138 6.18745 19.9677 6.86031 20.7688C8.55524 22.79 9.13441 23.7712 10.7484 24.5392C12.026 25.1456 13.0651 25.2007 13.4867 25.2043C13.6571 25.2043 14.6493 25.2043 15.7054 24.7781C16.1015 24.6164 16.3655 24.4547 16.5572 24.3077C16.7062 24.1938 16.8169 24.0835 16.8808 24.021C16.9788 23.9218 17.0725 23.83 17.2045 23.6168C17.213 23.6058 17.196 23.5727 17.2045 23.5543V22.2351L17.2002 22.2387Z" fill="url(#paint6_linear_3402_817)"/>
        <path d="M27.7487 29.8273H21.9996C21.8037 29.7355 21.578 29.6032 21.3565 29.4121C20.7518 28.8902 20.5815 28.2692 20.5304 27.9826C19.5935 23.1869 18.6608 18.3875 17.7239 13.5919C17.2725 11.5119 16.6252 9.85455 16.0886 8.68963C15.3945 7.17927 14.7429 5.79385 13.2822 4.34229C11.5575 2.63349 10.1777 2.29173 9.73904 2.19986C8.93417 2.03081 8.23149 2.05286 7.75879 2.10063C8.04412 1.71845 8.80641 0.810764 10.2203 0.314661C11.5958 -0.166744 12.8052 0.0169983 13.5335 0.134593C15.667 0.483703 17.0426 1.59718 17.6047 2.11901C19.0399 3.29863 20.2365 4.03728 21.0329 4.48193C21.1138 4.52603 21.3651 4.66568 21.7015 4.83839C23.1068 5.56234 23.9202 5.98127 24.691 6.08784C25.0275 6.13561 26.2795 6.24953 27.9361 5.03683C29.6395 3.83149 31.3387 2.62981 33.0422 1.42446C33.566 1.03126 34.5625 0.399182 35.9849 0.175017C36.4703 0.0978448 36.9175 0.0831454 37.2965 0.09417C37.9779 0.108869 39.0085 0.219115 40.1029 0.689495C40.5075 0.862212 40.8525 1.05698 41.1378 1.2444C41.5253 1.59351 41.9171 1.94262 42.3046 2.29173C41.5466 2.2807 40.2137 2.3542 38.7487 2.93115C38.3995 3.07079 37.2113 3.5669 36.0743 4.62893C35.4611 5.2022 35.0565 5.76078 34.7967 6.17604C34.2814 6.97348 33.7363 7.94364 33.2594 9.07916C32.8037 10.1669 32.5056 11.1738 32.3097 12.0411C32.1564 12.6952 32.0201 13.3934 31.9051 14.1247C31.8285 14.6172 31.7688 15.0912 31.722 15.5542C31.475 17.2704 31.228 18.9865 30.981 20.7064C30.5338 22.4188 30.0824 24.1313 29.6353 25.8438C29.5203 26.6559 29.4053 27.4718 29.2903 28.2839C29.2733 28.4162 29.2264 28.622 29.0817 28.8351C28.8006 29.2504 28.5578 29.5811 28.4088 29.6289" fill="url(#paint7_linear_3402_817)"/>
        <path opacity="0.1" d="M27.1358 26.4577H22.6813C22.5323 26.3878 22.3534 26.2813 22.183 26.1343C21.7146 25.73 21.5826 25.2486 21.54 25.0282C20.816 21.3129 20.0921 17.6013 19.3681 13.886C19.0189 12.2764 18.5164 10.9939 18.1033 10.0899C17.5667 8.92131 17.0599 7.84825 15.9314 6.72375C14.5985 5.40081 13.5295 5.13622 13.1889 5.06272C12.5671 4.93043 12.022 4.9488 11.6558 4.98555C11.8772 4.69156 12.4649 3.98599 13.5594 3.60381C14.624 3.23265 15.5609 3.37229 16.123 3.46417C17.7754 3.73243 18.84 4.59602 19.2744 5.00025C20.3859 5.91161 21.3143 6.48489 21.9275 6.83032C21.9914 6.86707 22.183 6.97364 22.4428 7.10594C23.533 7.66819 24.159 7.99157 24.7595 8.07242C25.0193 8.10917 25.9902 8.19737 27.2721 7.25661C28.588 6.32319 29.9082 5.39346 31.2241 4.46005C31.6286 4.15504 32.4037 3.66628 33.5024 3.49356C33.8814 3.43477 34.2221 3.42007 34.516 3.43109C35.0441 3.44212 35.8404 3.52664 36.6879 3.89045C37.003 4.02642 37.267 4.17709 37.4885 4.3204C37.7909 4.59234 38.089 4.86061 38.3913 5.13254C37.8036 5.1252 36.773 5.18032 35.6403 5.62865C35.3677 5.73522 34.4478 6.12108 33.5706 6.94424C33.0936 7.3889 32.7827 7.82253 32.5826 8.14224C32.1823 8.75962 31.7607 9.50928 31.3944 10.3912C31.041 11.2328 30.811 12.0119 30.6577 12.6843C30.5384 13.1915 30.432 13.7317 30.3468 14.2976C30.2872 14.6798 30.2403 15.0473 30.2063 15.4037C30.0146 16.734 29.823 18.0643 29.6314 19.3909C29.2822 20.7176 28.9372 22.0405 28.588 23.3671C28.4986 23.9955 28.4091 24.6276 28.3197 25.256C28.3069 25.3589 28.2686 25.5169 28.1579 25.6823C27.9407 26.0057 27.5915 26.1306 27.4765 26.1674" fill="url(#paint8_linear_3402_817)"/>
        <defs>
        <linearGradient id="paint0_linear_3402_817" x1="240.925" y1="-125.808" x2="116.93" y2="52.4399" gradientUnits="userSpaceOnUse">
        <stop stop-color="#0A1027"/>
        <stop offset="1" stop-color="#5547D7"/>
        </linearGradient>
        <linearGradient id="paint1_linear_3402_817" x1="24.8871" y1="33.5644" x2="24.9093" y2="30.9993" gradientUnits="userSpaceOnUse">
        <stop stop-color="#0A1027" stop-opacity="0.5"/>
        <stop offset="1" stop-color="#5547D7"/>
        </linearGradient>
        <linearGradient id="paint2_linear_3402_817" x1="25.0064" y1="36.714" x2="25.0286" y2="34.5752" gradientUnits="userSpaceOnUse">
        <stop stop-color="#5547D7" stop-opacity="0.1"/>
        <stop offset="1" stop-color="#5547D7"/>
        </linearGradient>
        <linearGradient id="paint3_linear_3402_817" x1="50.0008" y1="12.993" x2="27.1438" y2="12.993" gradientUnits="userSpaceOnUse">
        <stop stop-color="#5547D7" stop-opacity="0.2"/>
        <stop offset="1" stop-color="#5547D7"/>
        </linearGradient>
        <linearGradient id="paint4_linear_3402_817" x1="32.7954" y1="21.3897" x2="46.1589" y2="21.3897" gradientUnits="userSpaceOnUse">
        <stop stop-color="#5547D7" stop-opacity="0.1"/>
        <stop offset="1" stop-color="#5547D7"/>
        </linearGradient>
        <linearGradient id="paint5_linear_3402_817" x1="18.1543" y1="12.8131" x2="-4.69742" y2="12.8131" gradientUnits="userSpaceOnUse">
        <stop stop-color="#5547D7" stop-opacity="0.2"/>
        <stop offset="1" stop-color="#5547D7"/>
        </linearGradient>
        <linearGradient id="paint6_linear_3402_817" x1="17.2002" y1="21.3311" x2="3.84096" y2="21.3311" gradientUnits="userSpaceOnUse">
        <stop stop-color="#5547D7" stop-opacity="0.1"/>
        <stop offset="1" stop-color="#5547D7"/>
        </linearGradient>
        <linearGradient id="paint7_linear_3402_817" x1="22.7576" y1="30.4337" x2="24.542" y2="0.660346" gradientUnits="userSpaceOnUse">
        <stop stop-color="#5547D7" stop-opacity="0.2"/>
        <stop offset="1" stop-color="#5547D7"/>
        </linearGradient>
        <linearGradient id="paint8_linear_3402_817" x1="24.7552" y1="27.6998" x2="24.9645" y2="4.62109" gradientUnits="userSpaceOnUse">
        <stop stop-color="#5547D7" stop-opacity="0.2"/>
        <stop offset="1" stop-color="#5547D7"/>
        </linearGradient>
        </defs>
        </svg>