<svg width="50" height="37" viewBox="0 0 50 37" fill="none" xmlns="http://www.w3.org/2000/svg">
<path d="M20.6626 30.8965H29.1628V31.591C29.1628 32.5943 28.2174 33.4101 27.0548 33.4101H22.7706C21.608 33.4101 20.6626 32.5943 20.6626 31.591V30.8965Z" fill="url(#paint0_linear_3402_819)"/>
<path opacity="0.16" d="M22.5063 30.9038H27.5571V31.3154C27.5571 31.9107 26.9949 32.3958 26.305 32.3958H23.7584C23.0685 32.3958 22.5063 31.9107 22.5063 31.3154V30.9038Z" fill="white"/>
<path d="M21.4888 34.4907H28.5794V35.0677C28.5794 35.9055 27.7915 36.5854 26.8206 36.5854H23.2476C22.2766 36.5854 21.4888 35.9055 21.4888 35.0677V34.4907Z" fill="url(#paint1_linear_3402_819)"/>
<path opacity="0.16" d="M23.0264 34.4946H27.2381V34.8364C27.2381 35.3325 26.7697 35.7367 26.1948 35.7367H24.0697C23.4948 35.7367 23.0264 35.3325 23.0264 34.8364V34.4946Z" fill="white"/>
<path d="M32.7998 23.3079C32.7998 24.0061 32.7998 24.7007 32.8041 25.3989V27.7692C34.8865 27.7618 36.969 27.7545 39.0514 27.7508C39.2473 27.7508 39.5497 27.7251 39.8734 27.5928C40.295 27.4201 40.5292 27.1481 40.6484 27.0011C41.4916 25.9942 41.9771 25.0608 41.9771 25.0608C42.3646 24.3185 42.8033 23.5909 43.2036 22.8522C43.655 22.0107 43.8381 21.6983 44.4854 20.5114C44.873 19.7984 45.4394 18.7768 46.1591 17.5127" fill="#5547D7" fill-opacity="0.5"/>
<path d="M31.901 15.139C32.1011 15.2602 33.0806 14.4371 34.8351 12.6695V13.6507L32.9017 15.5579C32.8677 17.84 32.8336 20.1221 32.7995 22.4078C32.8123 22.4152 35.5846 23.4037 36.4577 23.5691C37.4755 23.7638 38.1994 23.7932 38.9064 23.5397C39.3706 23.3743 39.6687 23.1428 39.8049 23.0325C40.7376 22.2865 43.033 20.258 46.1886 17.4945C47.3171 15.6681 48.4414 13.8417 49.5699 12.0153C49.7573 11.6332 50.3748 10.2588 49.6721 8.85866C49.4848 8.49117 49.2463 8.19351 49.0163 7.96567C46.7848 6.09885 44.515 4.14016 42.2834 2.27334C41.3678 2.24394 39.592 2.39461 37.8375 3.35007C36.9091 3.85352 35.7465 4.19895 34.8351 5.4925C34.8181 5.51455 34.5498 5.66889 34.537 5.69094C32.527 8.58304 32.1394 11.9529 31.9137 14.1284C31.8541 14.7531 31.7945 15.0765 31.901 15.139Z" fill="url(#paint2_linear_3402_819)"/>
<path d="M32.7997 22.2973L32.8934 22.3304C33.9154 22.6501 34.8438 22.911 35.7679 23.2381C36.0746 23.341 36.6239 23.4953 37.1946 23.5321C37.5054 23.5541 37.9271 23.6681 38.536 23.499C39.145 23.33 39.5794 23.0617 39.7029 22.9698C40.0053 22.7493 40.7548 22.1026 41.3765 21.5807C42.1388 20.9413 42.9394 20.2541 43.6677 19.589C44.2085 19.0966 45.0602 18.3616 46.1547 17.5127C44.8217 18.8724 43.8125 20.0263 43.1396 20.8274C41.4447 22.8486 40.8655 23.8298 39.2515 24.5978C37.9739 25.2041 36.9348 25.2593 36.5132 25.2629C36.3428 25.2629 35.3506 25.2629 34.2945 24.8367C33.8984 24.675 33.6344 24.5133 33.4427 24.3663C33.2937 24.2524 33.183 24.1421 33.1191 24.0796C33.0211 23.9804 32.9274 23.8886 32.7954 23.6754C32.7869 23.6644 32.8039 23.6313 32.7954 23.6129V22.2937L32.7997 22.2973Z" fill="url(#paint3_linear_3402_819)"/>
<path d="M17.2001 23.2532C17.2001 23.9515 17.2001 24.646 17.1958 25.3442V27.7145C15.1134 27.7071 13.0309 27.6998 10.9484 27.6961C10.7525 27.6961 10.4502 27.6704 10.1265 27.5381C9.70493 27.3654 9.4707 27.0934 9.35146 26.9465C8.50826 25.9395 8.02278 25.0061 8.02278 25.0061C7.63524 24.2638 7.19661 23.5362 6.7963 22.7976C6.34488 21.956 6.16176 21.6437 5.51445 20.4567C5.12692 19.7438 4.56053 18.7222 3.84082 17.458" fill="#5547D7" fill-opacity="0.5"/>
<path d="M18.0989 15.0804C17.8988 15.2017 16.9193 14.3785 15.1647 12.6109V13.5921L17.0981 15.4994C17.1322 17.7814 17.1663 20.0635 17.2004 22.3493C17.1876 22.3566 14.4152 23.3452 13.5422 23.5105C12.5244 23.7053 11.8004 23.7347 11.0935 23.4811C10.6293 23.3158 10.3312 23.0842 10.1949 22.974C9.2623 22.228 6.96691 20.1995 3.81128 17.436C2.68275 15.6096 1.55848 13.7832 0.429945 11.9568C0.242566 11.5746 -0.374933 10.2002 0.327738 8.80013C0.515117 8.43264 0.753599 8.13498 0.983564 7.90714C3.21508 6.04032 5.5275 3.96403 7.75901 2.09721C8.21043 2.08251 9.05363 1.85835 9.80741 2.03841C10.5612 2.21848 11.2724 2.81013 12.1582 3.29154C13.1036 3.80234 13.9212 4.51526 14.8496 5.8529C16.8597 8.745 17.8562 11.8943 18.0819 14.0699C18.1415 14.6946 18.2011 15.018 18.0947 15.0804H18.0989Z" fill="url(#paint4_linear_3402_819)"/>
<path d="M17.2002 22.2387L17.1065 22.2718C16.0845 22.5915 15.1561 22.8524 14.232 23.1795C13.9253 23.2824 13.376 23.4367 12.8053 23.4735C12.4945 23.4955 12.0729 23.6095 11.4639 23.4404C10.8549 23.2714 10.4205 23.0031 10.297 22.9112C9.99465 22.6908 9.24513 22.044 8.62338 21.5222C7.86108 20.8827 7.06047 20.1955 6.33224 19.5304C5.7914 19.038 4.93968 18.303 3.84521 17.4541C5.17816 18.8138 6.18745 19.9677 6.86031 20.7688C8.55524 22.79 9.13441 23.7712 10.7484 24.5392C12.026 25.1456 13.0651 25.2007 13.4867 25.2043C13.6571 25.2043 14.6493 25.2043 15.7054 24.7781C16.1015 24.6164 16.3655 24.4547 16.5572 24.3077C16.7062 24.1938 16.8169 24.0835 16.8808 24.021C16.9788 23.9218 17.0725 23.83 17.2045 23.6168C17.213 23.6058 17.196 23.5727 17.2045 23.5543V22.2351L17.2002 22.2387Z" fill="url(#paint5_linear_3402_819)"/>
<path d="M27.7487 29.8273H21.9996C21.8037 29.7355 21.578 29.6032 21.3565 29.4121C20.7518 28.8902 20.5815 28.2692 20.5304 27.9826C19.5935 23.1869 18.6608 18.3875 17.7239 13.5919C17.2725 11.5119 16.6252 9.85455 16.0886 8.68963C15.3945 7.17927 14.7429 5.79385 13.2822 4.34229C11.5575 2.63349 10.1777 2.29173 9.73904 2.19986C8.93417 2.03081 8.23149 2.05286 7.75879 2.10063C8.04412 1.71845 8.80641 0.810764 10.2203 0.314661C11.5958 -0.166744 12.8052 0.0169983 13.5335 0.134593C15.667 0.483703 17.0426 1.59718 17.6047 2.11901C19.0399 3.29863 20.2365 4.03728 21.0329 4.48193C21.1138 4.52603 21.3651 4.66568 21.7015 4.83839C23.1068 5.56234 23.9202 5.98127 24.691 6.08784C25.0275 6.13561 26.2795 6.24953 27.9361 5.03683C29.6395 3.83149 31.3387 2.62981 33.0422 1.42446C33.566 1.03126 34.5625 0.399182 35.9849 0.175017C36.4703 0.0978448 36.9175 0.0831454 37.2965 0.09417C37.9779 0.108869 39.0085 0.219115 40.1029 0.689495C40.5075 0.862212 40.8525 1.05698 41.1378 1.2444C41.5253 1.59351 41.9171 1.94262 42.3046 2.29173C41.5466 2.2807 40.2137 2.3542 38.7487 2.93115C38.3995 3.07079 37.2113 3.5669 36.0743 4.62893C35.4611 5.2022 35.0565 5.76078 34.7967 6.17604C34.2814 6.97348 33.7363 7.94364 33.2594 9.07916C32.8037 10.1669 32.5056 11.1738 32.3097 12.0411C32.1564 12.6952 32.0201 13.3934 31.9051 14.1247C31.8285 14.6172 31.7688 15.0912 31.722 15.5542C31.475 17.2704 31.228 18.9865 30.981 20.7064C30.5338 22.4188 30.0824 24.1313 29.6353 25.8438C29.5203 26.6559 29.4053 27.4718 29.2903 28.2839C29.2733 28.4162 29.2264 28.622 29.0817 28.8351C28.8006 29.2504 28.5578 29.5811 28.4088 29.6289" fill="url(#paint6_linear_3402_819)"/>
<path opacity="0.1" d="M27.1358 26.4577H22.6813C22.5323 26.3878 22.3534 26.2813 22.183 26.1343C21.7146 25.73 21.5826 25.2486 21.54 25.0282C20.816 21.3129 20.0921 17.6013 19.3681 13.886C19.0189 12.2764 18.5164 10.9939 18.1033 10.0899C17.5667 8.92131 17.0599 7.84825 15.9314 6.72375C14.5985 5.40081 13.5295 5.13622 13.1889 5.06272C12.5671 4.93043 12.022 4.9488 11.6558 4.98555C11.8772 4.69156 12.4649 3.98599 13.5594 3.60381C14.624 3.23265 15.5609 3.37229 16.123 3.46417C17.7754 3.73243 18.84 4.59602 19.2744 5.00025C20.3859 5.91161 21.3143 6.48489 21.9275 6.83032C21.9914 6.86707 22.183 6.97364 22.4428 7.10594C23.533 7.66819 24.159 7.99157 24.7595 8.07242C25.0193 8.10917 25.9902 8.19737 27.2721 7.25661C28.588 6.32319 29.9082 5.39346 31.2241 4.46005C31.6286 4.15504 32.4037 3.66628 33.5024 3.49356C33.8814 3.43477 34.2221 3.42007 34.516 3.43109C35.0441 3.44212 35.8404 3.52664 36.6879 3.89045C37.003 4.02642 37.267 4.17709 37.4885 4.3204C37.7909 4.59234 38.089 4.86061 38.3913 5.13254C37.8036 5.1252 36.773 5.18032 35.6403 5.62865C35.3677 5.73522 34.4478 6.12108 33.5706 6.94424C33.0936 7.3889 32.7827 7.82253 32.5826 8.14224C32.1823 8.75962 31.7607 9.50928 31.3944 10.3912C31.041 11.2328 30.811 12.0119 30.6577 12.6843C30.5384 13.1915 30.432 13.7317 30.3468 14.2976C30.2872 14.6798 30.2403 15.0473 30.2063 15.4037C30.0146 16.734 29.823 18.0643 29.6314 19.3909C29.2822 20.7176 28.9372 22.0405 28.588 23.3671C28.4986 23.9955 28.4091 24.6276 28.3197 25.256C28.3069 25.3589 28.2686 25.5169 28.1579 25.6823C27.9407 26.0057 27.5915 26.1306 27.4765 26.1674" fill="url(#paint7_linear_3402_819)"/>
<defs>
<linearGradient id="paint0_linear_3402_819" x1="24.8871" y1="33.5644" x2="24.9093" y2="30.9993" gradientUnits="userSpaceOnUse">
<stop stop-color="#0A1027" stop-opacity="0.5"/>
<stop offset="1" stop-color="#5547D7"/>
</linearGradient>
<linearGradient id="paint1_linear_3402_819" x1="25.0064" y1="36.714" x2="25.0286" y2="34.5752" gradientUnits="userSpaceOnUse">
<stop stop-color="#5547D7" stop-opacity="0.1"/>
<stop offset="1" stop-color="#5547D7"/>
</linearGradient>
<linearGradient id="paint2_linear_3402_819" x1="50.0008" y1="12.993" x2="27.1438" y2="12.993" gradientUnits="userSpaceOnUse">
<stop stop-color="#5547D7" stop-opacity="0.2"/>
<stop offset="1" stop-color="#5547D7"/>
</linearGradient>
<linearGradient id="paint3_linear_3402_819" x1="32.7954" y1="21.3897" x2="46.1589" y2="21.3897" gradientUnits="userSpaceOnUse">
<stop stop-color="#5547D7" stop-opacity="0.1"/>
<stop offset="1" stop-color="#5547D7"/>
</linearGradient>
<linearGradient id="paint4_linear_3402_819" x1="18.1543" y1="12.8131" x2="-4.69742" y2="12.8131" gradientUnits="userSpaceOnUse">
<stop stop-color="#5547D7" stop-opacity="0.2"/>
<stop offset="1" stop-color="#5547D7"/>
</linearGradient>
<linearGradient id="paint5_linear_3402_819" x1="17.2002" y1="21.3311" x2="3.84096" y2="21.3311" gradientUnits="userSpaceOnUse">
<stop stop-color="#5547D7" stop-opacity="0.1"/>
<stop offset="1" stop-color="#5547D7"/>
</linearGradient>
<linearGradient id="paint6_linear_3402_819" x1="22.7576" y1="30.4337" x2="24.542" y2="0.660346" gradientUnits="userSpaceOnUse">
<stop stop-color="#5547D7" stop-opacity="0.2"/>
<stop offset="1" stop-color="#5547D7"/>
</linearGradient>
<linearGradient id="paint7_linear_3402_819" x1="24.7552" y1="27.6998" x2="24.9645" y2="4.62109" gradientUnits="userSpaceOnUse">
<stop stop-color="#5547D7" stop-opacity="0.2"/>
<stop offset="1" stop-color="#5547D7"/>
</linearGradient>
</defs>
</svg>